<svg width="58" height="51" viewBox="0 0 58 51" fill="none" xmlns="http://www.w3.org/2000/svg">
<path d="M27.4074 25.3429L27.7719 24.7045L35.3569 11.4593L28.872 0.129204L14.4343 25.3429L28.872 50.5599L35.3569 39.2298L27.7719 25.9846L27.4074 25.3429Z" fill="white"/>
<path d="M19.8224 37.3113L14.4344 46.723L2.19696 25.3429L14.4344 3.96607L19.8224 13.3744L20.9225 11.4593L14.4344 0.129204L0 25.3429L14.4344 50.5599L20.9225 39.2298L19.8224 37.3113Z" fill="white"/>
<path d="M42.9781 22.2645L42.988 22.2712V18.2038L33.8854 34.1027L35.0418 36.1247L42.9781 22.2645Z" fill="white"/>
<path d="M42.9782 16.7031L42.9881 16.7097V12.6423L32.2949 31.3252L33.4514 33.3439L42.9782 16.7031Z" fill="white"/>
<path d="M30.267 27.7827L42.9783 5.58375L42.9882 5.59043V0.684063L28.8719 25.3429L30.267 27.7827Z" fill="white"/>
<path d="M42.9782 11.1416L42.9881 11.1483V7.0842L30.701 28.5446L31.8575 30.5633L42.9782 11.1416Z" fill="white"/>
<path d="M43.621 0.683891V50.0049L57.7405 25.3428L43.621 0.683891Z" fill="white"/>
<path d="M42.9781 27.8226L42.988 27.8293V23.7618L35.476 36.8834L36.6324 38.902L42.9781 27.8226Z" fill="white"/>
<path d="M42.9782 33.3841L42.9882 33.3908V29.3233L37.0699 39.6641L38.2264 41.6828L42.9782 33.3841Z" fill="white"/>
<path d="M42.9881 44.7109L41.4738 47.3579L42.9881 50.0049V44.7109Z" fill="white"/>
<path d="M41.0398 46.5959L42.9782 43.2102L42.9882 43.2169V40.4429L40.2511 45.2256L41.0398 46.5959Z" fill="white"/>
<path d="M42.9782 38.9422L42.9882 38.9489V34.8848L38.6605 42.4449L39.817 44.4636L42.9782 38.9422Z" fill="white"/>
</svg>
